<svg width="165" height="81" viewBox="0 0 165 81" fill="none" xmlns="http://www.w3.org/2000/svg">
<path d="M-50 1L-38.4853 12.5147C-33.799 17.201 -26.201 17.201 -21.5147 12.5147L-18.4853 9.48527C-13.799 4.79898 -6.20101 4.79899 -1.51472 9.48528L1.51473 12.5147C6.20102 17.201 13.799 17.201 18.4853 12.5147L21.5147 9.48527C26.201 4.79898 33.799 4.79899 38.4853 9.48528L41.5147 12.5147C46.201 17.201 53.799 17.201 58.4853 12.5147L61.5147 9.48527C66.201 4.79898 73.799 4.79899 78.4853 9.48528L81.5147 12.5147C86.201 17.201 93.799 17.201 98.4853 12.5147L101.515 9.48527C106.201 4.79898 113.799 4.79899 118.485 9.48528L130 21" stroke="#F25F4C" stroke-width="2"/>
<path d="M-16 30.5L-4.48527 42.0147C0.201019 46.701 7.79899 46.701 12.4853 42.0147L15.5147 38.9853C20.201 34.299 27.799 34.299 32.4853 38.9853L35.5147 42.0147C40.201 46.701 47.799 46.701 52.4853 42.0147L55.5147 38.9853C60.201 34.299 67.799 34.299 72.4853 38.9853L75.5147 42.0147C80.201 46.701 87.799 46.701 92.4853 42.0147L95.5147 38.9853C100.201 34.299 107.799 34.299 112.485 38.9853L115.515 42.0147C120.201 46.701 127.799 46.701 132.485 42.0147L135.515 38.9853C140.201 34.299 147.799 34.299 152.485 38.9853L164 50.5" stroke="#F25F4C" stroke-width="2"/>
<path d="M-50 60L-38.4853 71.5147C-33.799 76.201 -26.201 76.201 -21.5147 71.5147L-18.4853 68.4853C-13.799 63.799 -6.20101 63.799 -1.51472 68.4853L1.51473 71.5147C6.20102 76.201 13.799 76.201 18.4853 71.5147L21.5147 68.4853C26.201 63.799 33.799 63.799 38.4853 68.4853L41.5147 71.5147C46.201 76.201 53.799 76.201 58.4853 71.5147L61.5147 68.4853C66.201 63.799 73.799 63.799 78.4853 68.4853L81.5147 71.5147C86.201 76.201 93.799 76.201 98.4853 71.5147L101.515 68.4853C106.201 63.799 113.799 63.799 118.485 68.4853L130 80" stroke="#F25F4C" stroke-width="2"/>
</svg>
