<svg width="487" height="361" viewBox="0 0 487 361" fill="none" xmlns="http://www.w3.org/2000/svg">
<g opacity="0.1">
<mask id="mask0_2_515" style="mask-type:alpha" maskUnits="userSpaceOnUse" x="0" y="0" width="487" height="361">
<rect x="485.61" y="0.5" width="360" height="485.11" transform="rotate(90 485.61 0.5)" fill="url(#paint0_linear_2_515)" stroke="#6246E5"/>
</mask>
<g mask="url(#mask0_2_515)">
<path d="M239.516 453.92C169.291 453.92 112.372 397.629 112.372 328.202C112.372 258.775 169.291 202.484 239.516 202.484C309.74 202.484 366.659 258.775 366.659 328.202C366.659 397.629 309.74 453.92 239.516 453.92Z" stroke="#6246E5"/>
<path d="M252.952 458.902C174.379 458.902 110.693 395.919 110.693 318.237C110.693 240.556 174.379 177.573 252.952 177.573C331.525 177.573 395.212 240.556 395.212 318.237C395.212 395.919 331.525 458.902 252.952 458.902Z" stroke="#6246E5"/>
<path d="M263.869 463.885C177.875 463.885 108.173 394.953 108.173 309.934C108.173 224.915 177.875 155.983 263.869 155.983C349.863 155.983 419.565 224.915 419.565 309.934C419.565 394.953 349.863 463.885 263.869 463.885Z" stroke="#6246E5"/>
<path d="M279.825 467.206C187.338 467.206 112.372 393.07 112.372 301.63C112.372 210.19 187.338 136.054 279.825 136.054C372.311 136.054 447.277 210.19 447.277 301.63C447.277 393.07 372.311 467.206 279.825 467.206Z" stroke="#6246E5"/>
<path d="M295.36 470.527C196.612 470.527 116.571 391.372 116.571 293.741C116.571 196.11 196.612 116.955 295.36 116.955C394.108 116.955 474.149 196.11 474.149 293.741C474.149 391.372 394.108 470.527 295.36 470.527Z" stroke="#6246E5"/>
<path d="M312.995 474.68C204.508 474.68 116.571 387.717 116.571 280.456C116.571 173.194 204.508 86.2314 312.995 86.2314C421.482 86.2314 509.419 173.194 509.419 280.456C509.419 387.717 421.482 474.68 312.995 474.68Z" stroke="#6246E5"/>
</g>
</g>
<defs>
<linearGradient id="paint0_linear_2_515" x1="742.145" y1="13.6384" x2="488.865" y2="487.582" gradientUnits="userSpaceOnUse">
<stop stop-color="#747DEF"/>
<stop offset="1" stop-color="#5E3BE1"/>
</linearGradient>
</defs>
</svg>
